solid OpenSCAD_Model
  facet normal -1 0 0
    outer loop
      vertex 14.125 2 -2
      vertex 14.125 1.625 -1.625
      vertex 14.125 2 2
    endloop
  endfacet
  facet normal -1 0 0
    outer loop
      vertex 14.125 2 -2
      vertex 14.125 -1.625 -1.625
      vertex 14.125 1.625 -1.625
    endloop
  endfacet
  facet normal -1 -0 0
    outer loop
      vertex 14.125 -1.625 -1.625
      vertex 14.125 -2 -2
      vertex 14.125 -1.625 1.625
    endloop
  endfacet
  facet normal -1 0 0
    outer loop
      vertex 14.125 -2 -2
      vertex 14.125 -1.625 -1.625
      vertex 14.125 2 -2
    endloop
  endfacet
  facet normal -1 0 0
    outer loop
      vertex 14.125 1.625 1.625
      vertex 14.125 2 2
      vertex 14.125 1.625 -1.625
    endloop
  endfacet
  facet normal -1 0 0
    outer loop
      vertex 14.125 -1.625 1.625
      vertex 14.125 2 2
      vertex 14.125 1.625 1.625
    endloop
  endfacet
  facet normal -1 0 0
    outer loop
      vertex 14.125 -1.625 1.625
      vertex 14.125 -2 2
      vertex 14.125 2 2
    endloop
  endfacet
  facet normal -1 0 0
    outer loop
      vertex 14.125 -2 2
      vertex 14.125 -1.625 1.625
      vertex 14.125 -2 -2
    endloop
  endfacet
  facet normal -0 0 1
    outer loop
      vertex -16 1.625 1.625
      vertex 14.125 -1.625 1.625
      vertex 14.125 1.625 1.625
    endloop
  endfacet
  facet normal 0 0 1
    outer loop
      vertex 14.125 -1.625 1.625
      vertex -16 1.625 1.625
      vertex -16 -1.625 1.625
    endloop
  endfacet
  facet normal 0 0 -1
    outer loop
      vertex -16 -1.625 -1.625
      vertex 14.125 1.625 -1.625
      vertex 14.125 -1.625 -1.625
    endloop
  endfacet
  facet normal -0 0 -1
    outer loop
      vertex 14.125 1.625 -1.625
      vertex -16 -1.625 -1.625
      vertex -16 1.625 -1.625
    endloop
  endfacet
  facet normal 0 1 -0
    outer loop
      vertex 14.125 1.625 -1.625
      vertex -16 1.625 1.625
      vertex 14.125 1.625 1.625
    endloop
  endfacet
  facet normal 0 1 0
    outer loop
      vertex -16 1.625 1.625
      vertex 14.125 1.625 -1.625
      vertex -16 1.625 -1.625
    endloop
  endfacet
  facet normal 0 -1 0
    outer loop
      vertex -16 -1.625 -1.625
      vertex 14.125 -1.625 1.625
      vertex -16 -1.625 1.625
    endloop
  endfacet
  facet normal 0 -1 -0
    outer loop
      vertex 14.125 -1.625 1.625
      vertex -16 -1.625 -1.625
      vertex 14.125 -1.625 -1.625
    endloop
  endfacet
  facet normal 1 -0 0
    outer loop
      vertex 16 -2 2
      vertex 16 2 -2
      vertex 16 2 2
    endloop
  endfacet
  facet normal 1 0 0
    outer loop
      vertex 16 2 -2
      vertex 16 -2 2
      vertex 16 -2 -2
    endloop
  endfacet
  facet normal -0 0 1
    outer loop
      vertex 14.125 2 2
      vertex 16 -2 2
      vertex 16 2 2
    endloop
  endfacet
  facet normal 0 0 1
    outer loop
      vertex 16 -2 2
      vertex 14.125 2 2
      vertex 14.125 -2 2
    endloop
  endfacet
  facet normal 0 0 -1
    outer loop
      vertex 14.125 -2 -2
      vertex 16 2 -2
      vertex 16 -2 -2
    endloop
  endfacet
  facet normal -0 0 -1
    outer loop
      vertex 16 2 -2
      vertex 14.125 -2 -2
      vertex 14.125 2 -2
    endloop
  endfacet
  facet normal -1 0 0
    outer loop
      vertex -16 -1.625 -1.625
      vertex -16 1.625 1.625
      vertex -16 1.625 -1.625
    endloop
  endfacet
  facet normal -1 -0 0
    outer loop
      vertex -16 1.625 1.625
      vertex -16 -1.625 -1.625
      vertex -16 -1.625 1.625
    endloop
  endfacet
  facet normal 0 1 -0
    outer loop
      vertex 16 2 -2
      vertex 14.125 2 2
      vertex 16 2 2
    endloop
  endfacet
  facet normal 0 1 0
    outer loop
      vertex 14.125 2 2
      vertex 16 2 -2
      vertex 14.125 2 -2
    endloop
  endfacet
  facet normal 0 -1 0
    outer loop
      vertex 14.125 -2 -2
      vertex 16 -2 2
      vertex 14.125 -2 2
    endloop
  endfacet
  facet normal 0 -1 -0
    outer loop
      vertex 16 -2 2
      vertex 14.125 -2 -2
      vertex 16 -2 -2
    endloop
  endfacet
endsolid OpenSCAD_Model
