solid OpenSCAD_Model
  facet normal 1 0 0
    outer loop
      vertex 9 2.5 2.5
      vertex 9 1.5 1
      vertex 9 2.5 0
    endloop
  endfacet
  facet normal 1 0 0
    outer loop
      vertex 9 2.5 2.5
      vertex 9 -1.5 1
      vertex 9 1.5 1
    endloop
  endfacet
  facet normal 1 0 0
    outer loop
      vertex 9 -1.5 1
      vertex 9 -2.5 2.5
      vertex 9 -1.5 -9
    endloop
  endfacet
  facet normal 1 -0 0
    outer loop
      vertex 9 -2.5 2.5
      vertex 9 -1.5 1
      vertex 9 2.5 2.5
    endloop
  endfacet
  facet normal 1 0 0
    outer loop
      vertex 9 2.5 0
      vertex 9 1.5 1
      vertex 9 1.5 0
    endloop
  endfacet
  facet normal 1 -0 0
    outer loop
      vertex 9 -1.5 -9
      vertex 9 2.5 -10.5
      vertex 9 2.5 -9
    endloop
  endfacet
  facet normal 1 0 0
    outer loop
      vertex 9 -1.5 -9
      vertex 9 -2.5 -10.5
      vertex 9 2.5 -10.5
    endloop
  endfacet
  facet normal 1 0 0
    outer loop
      vertex 9 -2.5 -10.5
      vertex 9 -1.5 -9
      vertex 9 -2.5 2.5
    endloop
  endfacet
  facet normal -0 0 1
    outer loop
      vertex -9 2.5 2.5
      vertex 9 -2.5 2.5
      vertex 9 2.5 2.5
    endloop
  endfacet
  facet normal 0 0 1
    outer loop
      vertex 9 -2.5 2.5
      vertex -9 2.5 2.5
      vertex -9 -2.5 2.5
    endloop
  endfacet
  facet normal 0 0 -1
    outer loop
      vertex -9 -2.5 -10.5
      vertex 9 2.5 -10.5
      vertex 9 -2.5 -10.5
    endloop
  endfacet
  facet normal -0 0 -1
    outer loop
      vertex 9 2.5 -10.5
      vertex -9 -2.5 -10.5
      vertex -9 2.5 -10.5
    endloop
  endfacet
  facet normal -1 0 0
    outer loop
      vertex -9 2.5 -10.5
      vertex -9 -1.5 -9
      vertex -9 2.5 -9
    endloop
  endfacet
  facet normal -1 -0 0
    outer loop
      vertex -9 -1.5 -9
      vertex -9 -2.5 -10.5
      vertex -9 -1.5 1
    endloop
  endfacet
  facet normal -1 0 0
    outer loop
      vertex -9 -2.5 -10.5
      vertex -9 -1.5 -9
      vertex -9 2.5 -10.5
    endloop
  endfacet
  facet normal -1 0 0
    outer loop
      vertex -9 1.5 1
      vertex -9 2.5 0
      vertex -9 1.5 0
    endloop
  endfacet
  facet normal -1 0 0
    outer loop
      vertex -9 2.5 0
      vertex -9 1.5 1
      vertex -9 2.5 2.5
    endloop
  endfacet
  facet normal -1 0 0
    outer loop
      vertex -9 -1.5 1
      vertex -9 2.5 2.5
      vertex -9 1.5 1
    endloop
  endfacet
  facet normal -1 0 0
    outer loop
      vertex -9 -1.5 1
      vertex -9 -2.5 2.5
      vertex -9 2.5 2.5
    endloop
  endfacet
  facet normal -1 0 0
    outer loop
      vertex -9 -2.5 2.5
      vertex -9 -1.5 1
      vertex -9 -2.5 -10.5
    endloop
  endfacet
  facet normal 0 1 -0
    outer loop
      vertex 9 2.5 0
      vertex -9 2.5 2.5
      vertex 9 2.5 2.5
    endloop
  endfacet
  facet normal 0 1 0
    outer loop
      vertex -9 2.5 2.5
      vertex 9 2.5 0
      vertex -9 2.5 0
    endloop
  endfacet
  facet normal 0 1 -0
    outer loop
      vertex 9 2.5 -10.5
      vertex -9 2.5 -9
      vertex 9 2.5 -9
    endloop
  endfacet
  facet normal 0 1 0
    outer loop
      vertex -9 2.5 -9
      vertex 9 2.5 -10.5
      vertex -9 2.5 -10.5
    endloop
  endfacet
  facet normal 0 -1 0
    outer loop
      vertex -9 -2.5 -10.5
      vertex 9 -2.5 2.5
      vertex -9 -2.5 2.5
    endloop
  endfacet
  facet normal 0 -1 -0
    outer loop
      vertex 9 -2.5 2.5
      vertex -9 -2.5 -10.5
      vertex 9 -2.5 -10.5
    endloop
  endfacet
  facet normal 0 0 -1
    outer loop
      vertex -9 1.5 0
      vertex 9 2.5 0
      vertex 9 1.5 0
    endloop
  endfacet
  facet normal -0 0 -1
    outer loop
      vertex 9 2.5 0
      vertex -9 1.5 0
      vertex -9 2.5 0
    endloop
  endfacet
  facet normal -0 0 1
    outer loop
      vertex -9 2.5 -9
      vertex 9 -1.5 -9
      vertex 9 2.5 -9
    endloop
  endfacet
  facet normal 0 0 1
    outer loop
      vertex 9 -1.5 -9
      vertex -9 2.5 -9
      vertex -9 -1.5 -9
    endloop
  endfacet
  facet normal 0 0 -1
    outer loop
      vertex -9 -1.5 1
      vertex 9 1.5 1
      vertex 9 -1.5 1
    endloop
  endfacet
  facet normal -0 0 -1
    outer loop
      vertex 9 1.5 1
      vertex -9 -1.5 1
      vertex -9 1.5 1
    endloop
  endfacet
  facet normal 0 -1 0
    outer loop
      vertex -9 1.5 0
      vertex 9 1.5 1
      vertex -9 1.5 1
    endloop
  endfacet
  facet normal 0 -1 -0
    outer loop
      vertex 9 1.5 1
      vertex -9 1.5 0
      vertex 9 1.5 0
    endloop
  endfacet
  facet normal 0 1 -0
    outer loop
      vertex 9 -1.5 -9
      vertex -9 -1.5 1
      vertex 9 -1.5 1
    endloop
  endfacet
  facet normal 0 1 0
    outer loop
      vertex -9 -1.5 1
      vertex 9 -1.5 -9
      vertex -9 -1.5 -9
    endloop
  endfacet
endsolid OpenSCAD_Model
