solid OpenSCAD_Model
  facet normal -0 0 1
    outer loop
      vertex -5 1.25 0.75
      vertex 3.5 -1.25 0.75
      vertex 3.5 1.25 0.75
    endloop
  endfacet
  facet normal 0 0 1
    outer loop
      vertex 3.5 -1.25 0.75
      vertex -5 1.25 0.75
      vertex -5 -1.25 0.75
    endloop
  endfacet
  facet normal 0 0 -1
    outer loop
      vertex -5 -1.25 -0.75
      vertex 3.5 1.25 -0.75
      vertex 3.5 -1.25 -0.75
    endloop
  endfacet
  facet normal -0 0 -1
    outer loop
      vertex 3.5 1.25 -0.75
      vertex -5 -1.25 -0.75
      vertex -5 1.25 -0.75
    endloop
  endfacet
  facet normal -1 0 0
    outer loop
      vertex -5 -1.25 -0.75
      vertex -5 1.25 0.75
      vertex -5 1.25 -0.75
    endloop
  endfacet
  facet normal -1 -0 0
    outer loop
      vertex -5 1.25 0.75
      vertex -5 -1.25 -0.75
      vertex -5 -1.25 0.75
    endloop
  endfacet
  facet normal 0 1 -0
    outer loop
      vertex 3.5 1.25 -0.75
      vertex -5 1.25 0.75
      vertex 3.5 1.25 0.75
    endloop
  endfacet
  facet normal 0 1 0
    outer loop
      vertex -5 1.25 0.75
      vertex 3.5 1.25 -0.75
      vertex -5 1.25 -0.75
    endloop
  endfacet
  facet normal 0 -1 0
    outer loop
      vertex -5 -1.25 -0.75
      vertex 3.5 -1.25 0.75
      vertex -5 -1.25 0.75
    endloop
  endfacet
  facet normal 0 -1 -0
    outer loop
      vertex 3.5 -1.25 0.75
      vertex -5 -1.25 -0.75
      vertex 3.5 -1.25 -0.75
    endloop
  endfacet
  facet normal 1 -0 0
    outer loop
      vertex 5.5 -2.5 1.5
      vertex 5.5 2.5 -1
      vertex 5.5 2.5 1.5
    endloop
  endfacet
  facet normal 1 0 0
    outer loop
      vertex 5.5 2.5 -1
      vertex 5.5 -2.5 1.5
      vertex 5.5 -2.5 -1
    endloop
  endfacet
  facet normal -0 0 1
    outer loop
      vertex 3.5 2.5 1.5
      vertex 5.5 -2.5 1.5
      vertex 5.5 2.5 1.5
    endloop
  endfacet
  facet normal 0 0 1
    outer loop
      vertex 5.5 -2.5 1.5
      vertex 3.5 2.5 1.5
      vertex 3.5 -2.5 1.5
    endloop
  endfacet
  facet normal 0 0 -1
    outer loop
      vertex 3.5 -2.5 -1
      vertex 5.5 2.5 -1
      vertex 5.5 -2.5 -1
    endloop
  endfacet
  facet normal -0 0 -1
    outer loop
      vertex 5.5 2.5 -1
      vertex 3.5 -2.5 -1
      vertex 3.5 2.5 -1
    endloop
  endfacet
  facet normal -1 0 0
    outer loop
      vertex 3.5 1.25 0.75
      vertex 3.5 2.5 -1
      vertex 3.5 1.25 -0.75
    endloop
  endfacet
  facet normal -1 0 0
    outer loop
      vertex 3.5 2.5 -1
      vertex 3.5 -1.25 -0.75
      vertex 3.5 1.25 -0.75
    endloop
  endfacet
  facet normal -1 -0 0
    outer loop
      vertex 3.5 -1.25 -0.75
      vertex 3.5 -2.5 -1
      vertex 3.5 -1.25 0.75
    endloop
  endfacet
  facet normal -1 0 0
    outer loop
      vertex 3.5 -2.5 -1
      vertex 3.5 -1.25 -0.75
      vertex 3.5 2.5 -1
    endloop
  endfacet
  facet normal -1 0 0
    outer loop
      vertex 3.5 2.5 -1
      vertex 3.5 1.25 0.75
      vertex 3.5 2.5 1.5
    endloop
  endfacet
  facet normal -1 0 0
    outer loop
      vertex 3.5 -1.25 0.75
      vertex 3.5 2.5 1.5
      vertex 3.5 1.25 0.75
    endloop
  endfacet
  facet normal -1 0 0
    outer loop
      vertex 3.5 -1.25 0.75
      vertex 3.5 -2.5 1.5
      vertex 3.5 2.5 1.5
    endloop
  endfacet
  facet normal -1 0 0
    outer loop
      vertex 3.5 -2.5 1.5
      vertex 3.5 -1.25 0.75
      vertex 3.5 -2.5 -1
    endloop
  endfacet
  facet normal 0 1 -0
    outer loop
      vertex 5.5 2.5 -1
      vertex 3.5 2.5 1.5
      vertex 5.5 2.5 1.5
    endloop
  endfacet
  facet normal 0 1 0
    outer loop
      vertex 3.5 2.5 1.5
      vertex 5.5 2.5 -1
      vertex 3.5 2.5 -1
    endloop
  endfacet
  facet normal 0 -1 0
    outer loop
      vertex 3.5 -2.5 -1
      vertex 5.5 -2.5 1.5
      vertex 3.5 -2.5 1.5
    endloop
  endfacet
  facet normal 0 -1 -0
    outer loop
      vertex 5.5 -2.5 1.5
      vertex 3.5 -2.5 -1
      vertex 5.5 -2.5 -1
    endloop
  endfacet
endsolid OpenSCAD_Model
